<?xml version="1.0" standalone="no"?>
<!DOCTYPE svg PUBLIC "-//W3C//DTD SVG 20010904//EN"
 "http://www.w3.org/TR/2001/REC-SVG-20010904/DTD/svg10.dtd">
<svg version="1.0" xmlns="http://www.w3.org/2000/svg"
 width="1080.000000pt" height="1080.000000pt" viewBox="0 0 1080.000000 1080.000000"
 preserveAspectRatio="xMidYMid meet">
<metadata>
Created by potrace 1.14, written by Peter Selinger 2001-2017
</metadata>
<g transform="translate(0.000000,1080.000000) scale(0.100000,-0.100000)"
fill="#000000" stroke="none">
<path d="M5118 10795 c-2 -1 -46 -6 -98 -9 -188 -13 -410 -39 -550 -66 -30 -6
-68 -13 -85 -15 -16 -3 -43 -8 -60 -12 -16 -3 -37 -7 -45 -9 -8 -1 -64 -14
-125 -29 -60 -15 -117 -28 -127 -30 -41 -9 -272 -80 -377 -116 -64 -23 -122
-41 -128 -42 -7 0 -13 -4 -13 -7 0 -4 -13 -10 -28 -13 -25 -5 -153 -57 -292
-119 -83 -37 -315 -151 -320 -157 -3 -3 -29 -17 -57 -30 -29 -14 -53 -28 -53
-33 0 -4 -3 -7 -7 -6 -14 5 -395 -230 -450 -277 -6 -5 -28 -21 -48 -35 -20
-14 -51 -36 -69 -50 -19 -14 -44 -32 -56 -40 -12 -8 -32 -23 -43 -34 -12 -10
-48 -38 -80 -63 -32 -25 -68 -55 -80 -67 -12 -11 -47 -41 -76 -66 -116 -97
-310 -286 -436 -426 -38 -43 -83 -93 -100 -111 -16 -17 -41 -47 -55 -64 -14
-18 -30 -37 -36 -43 -5 -6 -34 -42 -63 -81 -30 -38 -61 -76 -69 -82 -9 -7 -13
-13 -9 -13 6 0 -22 -39 -111 -155 -33 -44 -203 -315 -263 -420 -96 -168 -250
-479 -250 -505 0 -3 -10 -21 -22 -40 -12 -19 -21 -36 -19 -38 1 -1 -5 -19 -13
-40 -53 -124 -187 -513 -199 -576 -2 -6 -8 -31 -15 -56 -7 -25 -15 -52 -17
-60 -11 -47 -26 -107 -30 -120 -8 -29 -45 -205 -50 -239 -3 -18 -8 -43 -10
-55 -2 -11 -7 -37 -10 -56 -3 -19 -8 -48 -11 -65 -3 -16 -7 -43 -9 -60 -2 -16
-6 -43 -8 -60 -3 -16 -7 -59 -11 -95 -4 -36 -8 -76 -11 -90 -26 -161 -25 -808
1 -1040 2 -19 6 -62 10 -95 3 -33 8 -69 10 -80 2 -11 7 -42 10 -70 3 -27 8
-59 10 -70 3 -11 7 -36 10 -55 21 -147 57 -312 119 -545 35 -133 136 -433 196
-580 73 -182 177 -405 195 -417 5 -4 7 -8 3 -8 -23 0 323 -586 385 -651 9 -11
17 -22 17 -25 0 -5 168 -231 194 -261 6 -7 16 -18 21 -25 11 -14 114 -136 130
-154 6 -6 40 -44 77 -85 92 -102 238 -249 343 -344 49 -44 96 -87 104 -95 9
-8 30 -25 46 -38 17 -13 47 -39 67 -58 20 -19 41 -34 47 -34 5 0 11 -3 13 -8
2 -4 23 -23 48 -42 25 -19 47 -37 50 -40 3 -3 52 -39 110 -80 58 -41 107 -78
108 -82 2 -5 8 -8 14 -8 6 0 33 -16 59 -35 27 -19 51 -35 54 -35 3 0 27 -16
54 -35 26 -19 51 -35 54 -35 3 0 36 -19 73 -42 105 -63 194 -111 369 -197 142
-70 393 -181 420 -185 6 -1 15 -4 20 -8 19 -12 373 -133 415 -142 33 -7 76
-18 90 -23 8 -3 20 -7 25 -8 6 -2 55 -14 110 -28 55 -14 116 -29 135 -32 19
-3 51 -10 70 -15 19 -5 58 -12 85 -16 28 -3 52 -8 55 -9 3 -2 24 -6 46 -9 22
-4 49 -8 59 -10 11 -2 43 -7 70 -10 28 -4 66 -9 85 -12 19 -2 58 -7 85 -10 28
-3 66 -7 85 -9 219 -27 796 -27 1020 0 19 2 65 6 102 10 37 3 75 7 85 9 10 2
41 7 68 10 43 6 184 29 250 41 11 2 40 8 65 14 25 5 60 13 79 16 19 3 37 8 41
10 4 2 22 7 41 10 19 3 52 11 74 16 22 6 49 13 60 16 38 8 50 11 50 13 0 1 7
3 15 5 8 2 40 11 70 20 30 9 62 18 70 20 8 2 56 18 105 35 50 17 95 32 100 34
6 1 17 5 25 8 8 3 38 14 65 23 28 10 64 23 80 30 17 7 77 32 135 55 102 42
423 196 505 242 177 101 231 132 235 137 3 4 34 24 70 45 36 22 67 43 68 48 2
4 8 8 13 8 11 0 113 71 117 82 2 5 8 8 14 8 6 0 48 28 92 62 140 106 200 153
212 163 6 6 37 33 69 60 104 88 139 119 194 170 76 70 371 373 371 381 0 2 8
12 18 22 9 10 35 40 57 66 22 27 45 54 51 60 6 6 26 32 46 57 19 26 40 53 47
60 30 35 128 170 164 226 22 35 44 63 49 63 4 0 8 4 8 10 0 5 11 26 25 47 14
21 30 45 35 53 5 8 21 32 35 52 13 21 22 38 19 38 -3 0 6 15 19 32 30 40 187
324 187 338 0 6 5 10 12 10 6 0 9 3 6 6 -4 3 18 54 48 114 30 60 54 111 54
114 0 3 11 29 24 58 13 29 32 76 43 103 12 28 29 70 39 95 11 24 19 47 19 50
0 3 17 50 37 105 47 129 141 439 152 505 3 14 5 26 7 28 2 2 3 6 12 52 4 19
10 46 13 60 17 79 59 309 69 380 3 25 8 56 10 70 3 23 13 113 20 185 28 279
27 798 -1 1045 -21 184 -24 208 -34 270 -5 30 -12 75 -15 100 -4 25 -15 88
-26 140 -11 52 -22 106 -25 120 -3 14 -14 63 -25 110 -12 47 -22 93 -24 103
-2 9 -6 21 -9 25 -3 5 -7 21 -10 37 -7 38 -89 295 -132 415 -59 163 -152 380
-214 503 -11 22 -20 45 -20 53 0 8 -4 14 -10 14 -5 0 -10 4 -10 9 0 4 -18 40
-39 80 -22 39 -37 71 -34 71 3 0 -1 8 -9 18 -8 9 -18 24 -21 32 -4 8 -20 38
-37 65 -17 28 -33 58 -37 68 -3 9 -9 17 -14 17 -5 0 -9 5 -9 11 0 6 -14 31
-30 56 -17 24 -30 48 -30 54 0 5 -4 9 -10 9 -5 0 -10 7 -10 15 0 8 -4 15 -10
15 -5 0 -10 4 -10 9 0 25 -298 431 -390 532 -8 9 -35 40 -60 69 -140 165 -384
406 -555 550 -27 23 -55 47 -60 53 -6 7 -18 17 -26 22 -14 9 -138 106 -192
150 -9 8 -21 15 -26 15 -5 0 -11 3 -13 8 -7 18 -273 197 -418 283 -41 24 -83
48 -92 54 -30 18 -110 61 -202 109 -50 26 -95 50 -100 54 -6 4 -13 7 -16 7 -3
1 -30 13 -60 27 -117 55 -188 86 -255 113 -38 15 -83 33 -100 40 -16 7 -57 23
-90 34 -33 12 -67 24 -75 28 -8 3 -20 7 -26 8 -6 2 -51 16 -100 33 -128 44
-492 139 -602 158 -15 3 -65 12 -112 20 -47 9 -92 17 -100 19 -8 1 -42 6 -75
9 -33 4 -73 10 -90 12 -16 3 -43 7 -60 9 -91 10 -161 17 -208 21 -59 6 -684
14 -689 9z"/>
</g>
</svg>
